# xmcd
#
# Track frame offsets: 
#        150
#        22678
#        44565
#        63023
#        78700
#        94614
#        116345
#        136000
#        166438
#        189675
#        213678
#        231508
#        261820
#        283348
#        302270
#        324295
#        339313
#
# Disc length: 4547 seconds
#
# Revision: 4
# Processed by: cddbd v1.5.2PL0 Copyright (c) Steve Scherf et al.
# Submitted via: ExactAudioCopy v0.99pb5
#
DISCID=e811c111
DTITLE=Various Artist - Ferry Maat's Soulshow: Funky #5 CD3
DYEAR=2007
DGENRE=Funk
TTITLE0=The Jacksons - Everybody
TTITLE1=TS Monk - I'm A Candidate For Love
TTITLE2=Johnathan Butler - Overflowing
TTITLE3=Earth Wind and Fire - Can't Let Go
TTITLE4=Glady's Knight and The Pips - Bourgie Bourgie
TTITLE5=T Connection - Girl Watching
TTITLE6=The System - I Wanna Make You Feel Good
TTITLE7=Chic - My Feet Keep Dancin'
TTITLE8=Larry Graham - Sooner Or Later
TTITLE9=Lillo Thomas - Let Me Be Yours
TTITLE10=Fruitcake - My Feet Won't Move
TTITLE11=Shirley Lites - Heat You Up (Melt You Down)
TTITLE12=Mystic Merlin - Sixty Thrills A Minute
TTITLE13=Leon Ware - Why I Came To California
TTITLE14=Mighty Fire - Sweet Fire
TTITLE15=Julius Brown - Party
TTITLE16=Soul Show Jingle - On Your Radio
EXTD=
EXTT0=
EXTT1=
EXTT2=
EXTT3=
EXTT4=
EXTT5=
EXTT6=
EXTT7=
EXTT8=
EXTT9=
EXTT10=
EXTT11=
EXTT12=
EXTT13=
EXTT14=
EXTT15=
EXTT16=
PLAYORDER=
